<svg width="170" height="40" viewBox="0 0 170 40" fill="none" xmlns="http://www.w3.org/2000/svg">
<path d="M8.5 8L16.5 16L24.5 8L32.5 16L16.5 32L0.5 16L8.5 8Z" fill="#7C00FE"/>
<path d="M49.848 31.756C47.8853 31.756 46.1573 31.372 44.664 30.604C43.192 29.836 42.0507 28.7907 41.24 27.468C40.4293 26.124 40.024 24.5987 40.024 22.892C40.024 21.164 40.4187 19.6387 41.208 18.316C42.0187 16.972 43.1173 15.9267 44.504 15.18C45.8907 14.412 47.4587 14.028 49.208 14.028C50.8933 14.028 52.408 14.3907 53.752 15.116C55.1173 15.82 56.1947 16.844 56.984 18.188C57.7733 19.5107 58.168 21.1 58.168 22.956C58.168 23.148 58.1573 23.372 58.136 23.628C58.1147 23.8627 58.0933 24.0867 58.072 24.3H44.088V21.388H55.448L53.528 22.252C53.528 21.356 53.3467 20.5773 52.984 19.916C52.6213 19.2547 52.12 18.7427 51.48 18.38C50.84 17.996 50.0933 17.804 49.24 17.804C48.3867 17.804 47.6293 17.996 46.968 18.38C46.328 18.7427 45.8267 19.2653 45.464 19.948C45.1013 20.6093 44.92 21.3987 44.92 22.316V23.084C44.92 24.0227 45.1227 24.8547 45.528 25.58C45.9547 26.284 46.5413 26.828 47.288 27.212C48.056 27.5747 48.952 27.756 49.976 27.756C50.8933 27.756 51.6933 27.6173 52.376 27.34C53.08 27.0627 53.72 26.6467 54.296 26.092L56.952 28.972C56.1627 29.868 55.1707 30.5613 53.976 31.052C52.7813 31.5213 51.4053 31.756 49.848 31.756ZM65.851 31.5L58.619 14.284H63.771L69.787 29.1H67.227L73.467 14.284H78.267L71.003 31.5H65.851ZM88.3793 31.756C86.4166 31.756 84.6886 31.372 83.1953 30.604C81.7233 29.836 80.5819 28.7907 79.7713 27.468C78.9606 26.124 78.5553 24.5987 78.5553 22.892C78.5553 21.164 78.9499 19.6387 79.7393 18.316C80.5499 16.972 81.6486 15.9267 83.0353 15.18C84.4219 14.412 85.9899 14.028 87.7393 14.028C89.4246 14.028 90.9393 14.3907 92.2833 15.116C93.6486 15.82 94.7259 16.844 95.5153 18.188C96.3046 19.5107 96.6993 21.1 96.6993 22.956C96.6993 23.148 96.6886 23.372 96.6673 23.628C96.6459 23.8627 96.6246 24.0867 96.6033 24.3H82.6193V21.388H93.9792L92.0593 22.252C92.0593 21.356 91.8779 20.5773 91.5153 19.916C91.1526 19.2547 90.6513 18.7427 90.0113 18.38C89.3713 17.996 88.6246 17.804 87.7713 17.804C86.9179 17.804 86.1606 17.996 85.4993 18.38C84.8593 18.7427 84.3579 19.2653 83.9953 19.948C83.6326 20.6093 83.4513 21.3987 83.4513 22.316V23.084C83.4513 24.0227 83.6539 24.8547 84.0593 25.58C84.4859 26.284 85.0726 26.828 85.8193 27.212C86.5873 27.5747 87.4833 27.756 88.5073 27.756C89.4246 27.756 90.2246 27.6173 90.9073 27.34C91.6113 27.0627 92.2513 26.6467 92.8273 26.092L95.4833 28.972C94.6939 29.868 93.7019 30.5613 92.5073 31.052C91.3126 31.5213 89.9366 31.756 88.3793 31.756ZM110.487 14.028C111.852 14.028 113.068 14.3053 114.135 14.86C115.223 15.3933 116.076 16.2253 116.695 17.356C117.313 18.4653 117.623 19.8947 117.623 21.644V31.5H112.631V22.412C112.631 21.0253 112.321 20.0013 111.703 19.34C111.105 18.6787 110.252 18.348 109.143 18.348C108.353 18.348 107.639 18.5187 106.999 18.86C106.38 19.18 105.889 19.6813 105.527 20.364C105.185 21.0467 105.015 21.9213 105.015 22.988V31.5H100.023V14.284H104.791V19.052L103.895 17.612C104.513 16.46 105.399 15.5747 106.551 14.956C107.703 14.3373 109.015 14.028 110.487 14.028ZM129.188 31.756C127.161 31.756 125.582 31.244 124.452 30.22C123.321 29.1747 122.756 27.628 122.756 25.58V10.476H127.748V25.516C127.748 26.2413 127.94 26.8067 128.324 27.212C128.708 27.596 129.23 27.788 129.892 27.788C130.681 27.788 131.353 27.5747 131.908 27.148L133.252 30.668C132.74 31.0307 132.121 31.308 131.396 31.5C130.692 31.6707 129.956 31.756 129.188 31.756ZM120.1 18.508V14.668H132.036V18.508H120.1ZM136.054 31.5V7.756H141.046V31.5H136.054ZM147.855 37.964C146.959 37.964 146.074 37.8253 145.199 37.548C144.324 37.2707 143.61 36.8867 143.055 36.396L144.879 32.844C145.263 33.1853 145.7 33.452 146.191 33.644C146.703 33.836 147.204 33.932 147.695 33.932C148.399 33.932 148.954 33.7613 149.359 33.42C149.786 33.1 150.17 32.556 150.511 31.788L151.407 29.676L151.791 29.132L157.967 14.284H162.767L154.991 32.556C154.436 33.9427 153.796 35.0307 153.071 35.82C152.367 36.6093 151.578 37.164 150.703 37.484C149.85 37.804 148.9 37.964 147.855 37.964ZM150.799 32.172L143.119 14.284H148.271L154.223 28.684L150.799 32.172Z" fill="#1E1E1E"/>
</svg>
